<?xml version="1.0" encoding="UTF-8" standalone="no"?>
<svg
   version="1.0"
   width="701.000000pt"
   height="779.000000pt"
   viewBox="0 0 701.000000 779.000000"
   preserveAspectRatio="xMidYMid meet"
   id="svg4"
   sodipodi:docname="discard.svg"
   inkscape:version="1.3.2 (091e20ef0f, 2023-11-25, custom)"
   xmlns:inkscape="http://www.inkscape.org/namespaces/inkscape"
   xmlns:sodipodi="http://sodipodi.sourceforge.net/DTD/sodipodi-0.dtd"
   xmlns="http://www.w3.org/2000/svg"
   xmlns:svg="http://www.w3.org/2000/svg">
  <defs
     id="defs4" />
  <sodipodi:namedview
     id="namedview4"
     pagecolor="#ffffff"
     bordercolor="#000000"
     borderopacity="0.25"
     inkscape:showpageshadow="2"
     inkscape:pageopacity="0.0"
     inkscape:pagecheckerboard="0"
     inkscape:deskcolor="#d1d1d1"
     inkscape:document-units="pt"
     inkscape:zoom="0.75385109"
     inkscape:cx="466.93572"
     inkscape:cy="519.33333"
     inkscape:window-width="1872"
     inkscape:window-height="1032"
     inkscape:window-x="48"
     inkscape:window-y="-36"
     inkscape:window-maximized="1"
     inkscape:current-layer="svg4" />
  <g
     transform="matrix(-0.1,0,0,0.1,701.5,0.08263003)"
     fill="#000000"
     stroke="none"
     id="g4"
     style="fill:#000000;fill-opacity:1">
    <path
       d="m 3125,7780 c -117,-24 -233,-96 -300,-188 -19,-26 -59,-92 -88,-147 -30,-55 -189,-347 -352,-650 C 2221,6493 1992,6070 1875,5855 1758,5641 1534,5229 1378,4940 1221,4651 958,4168 793,3865 242,2853 58,2511 31,2448 7,2391 5,2374 5,2255 6,2104 21,2051 95,1951 159,1864 223,1819 472,1686 738,1543 2779,445 3205,215 3370,126 3532,43 3565,30 3638,3 3780,-8 3861,9 c 119,25 240,105 309,206 15,22 128,224 250,450 122,226 250,462 285,525 35,63 331,611 660,1218 636,1175 615,1132 567,1175 -9,8 -156,113 -327,232 l -310,217 -56,-4 c -129,-9 -196,-136 -130,-245 11,-18 105,-90 231,-177 165,-115 210,-151 205,-164 -15,-40 -1620,-3006 -1648,-3046 -11,-16 -45,-40 -75,-54 -83,-38 -123,-29 -300,66 -81,44 -430,232 -777,419 -346,187 -929,501 -1295,698 -953,512 -1012,544 -1046,571 -77,57 -97,180 -46,275 16,30 170,313 342,629 172,316 356,656 410,755 54,99 165,304 247,455 344,633 675,1241 893,1645 128,237 315,581 415,765 100,184 231,425 290,535 123,230 142,258 193,284 90,46 135,38 302,-54 63,-34 340,-186 615,-338 275,-151 696,-381 935,-512 239,-131 617,-338 840,-460 223,-122 478,-262 568,-310 185,-102 224,-130 254,-188 34,-67 29,-137 -14,-222 -78,-152 -330,-611 -341,-621 -7,-6 -176,-52 -377,-103 -200,-50 -378,-101 -396,-112 -119,-73 -55,-289 86,-289 43,0 796,183 852,207 20,8 48,27 62,42 23,24 311,543 407,734 50,99 69,172 69,267 0,199 -98,360 -287,472 -43,25 -334,187 -648,358 -539,296 -1235,678 -2195,1206 -350,192 -439,237 -504,254 -81,20 -179,24 -251,10 z"
       id="path1"
       style="fill:#000000;fill-opacity:1" />
    <path
       d="M 3188,7053 C 3141,6966 2955,6623 2775,6290 2595,5957 2347,5501 2225,5275 2103,5050 1887,4651 1745,4390 1365,3689 950,2927 850,2745 659,2398 591,2267 595,2260 c 3,-4 85,-50 182,-103 213,-113 244,-130 1143,-614 1209,-652 1808,-973 1813,-973 3,0 42,69 88,153 275,505 740,1367 1204,2231 319,594 319,557 6,426 -118,-50 -216,-89 -218,-86 -2,2 45,102 105,221 l 109,217 -45,54 c -24,30 -48,54 -52,54 -5,0 -266,29 -582,65 -315,36 -694,79 -843,96 -148,17 -271,32 -272,33 -3,3 71,91 218,262 l 87,102 -136,6 c -75,3 -386,11 -690,18 -304,6 -549,15 -545,19 8,6 370,58 1353,194 261,36 532,74 603,84 70,9 127,15 127,12 0,-3 -67,-98 -149,-211 -82,-113 -148,-206 -147,-207 1,-2 290,38 642,87 351,50 677,96 724,102 47,6 93,18 102,26 10,8 78,92 152,186 74,94 148,187 164,206 l 30,35 58,-92 c 43,-67 65,-93 79,-92 11,0 58,8 104,18 l 83,17 178,330 c 134,247 175,332 167,340 -7,6 -268,151 -582,321 -313,171 -680,372 -815,446 -135,74 -576,316 -980,537 -404,221 -745,408 -757,416 -12,8 -24,14 -26,14 -2,0 -42,-71 -89,-157 z M 1365,3248 c 65,-34 701,-375 1400,-753 242,-131 661,-356 930,-501 302,-163 501,-276 518,-294 36,-40 37,-88 1,-121 -47,-44 -76,-35 -329,103 -126,69 -376,204 -555,300 -179,97 -557,300 -840,453 -283,153 -672,363 -865,466 -192,103 -368,200 -390,216 -70,51 -73,122 -5,155 40,20 52,18 135,-24 z m 49,-549 c 375,-201 1245,-670 1491,-804 160,-87 862,-466 1005,-542 36,-19 75,-46 88,-59 31,-36 30,-88 -4,-119 -48,-44 -77,-36 -298,84 -110,60 -370,200 -576,311 -909,492 -1273,688 -1680,907 -239,129 -445,246 -457,259 -35,38 -31,86 9,119 26,22 39,26 66,21 19,-3 179,-83 356,-177 z"
       id="path2"
       style="fill:#000000;fill-opacity:1" />
    <path
       d="m 6460,4050 c -129,-37 -242,-71 -252,-75 -9,-3 -21,-19 -28,-35 -10,-25 -6,-48 30,-172 46,-159 59,-185 96,-194 24,-6 491,114 539,139 27,14 44,38 45,62 0,42 -88,319 -106,332 -30,22 -81,13 -324,-57 z"
       id="path3"
       style="fill:#000000;fill-opacity:1" />
    <path
       d="m 6231,3369 c -52,-22 -101,-45 -108,-51 -7,-6 -13,-26 -13,-45 0,-29 14,-49 103,-145 56,-61 114,-120 128,-130 26,-20 26,-20 78,2 66,29 71,48 41,165 -42,164 -60,214 -83,230 -29,21 -38,19 -146,-26 z"
       id="path4"
       style="fill:#000000;fill-opacity:1" />
  </g>
</svg>
