<?xml version="1.0" encoding="UTF-8" standalone="no"?>
<!-- Uploaded to: SVG Repo, www.svgrepo.com, Generator: SVG Repo Mixer Tools -->

<svg
   width="800px"
   height="800px"
   viewBox="0 0 24 24"
   fill="none"
   version="1.1"
   id="svg5"
   sodipodi:docname="trash-bin-trash-svgrepo-com.svg"
   inkscape:version="1.3.2 (091e20ef0f, 2023-11-25, custom)"
   xmlns:inkscape="http://www.inkscape.org/namespaces/inkscape"
   xmlns:sodipodi="http://sodipodi.sourceforge.net/DTD/sodipodi-0.dtd"
   xmlns="http://www.w3.org/2000/svg"
   xmlns:svg="http://www.w3.org/2000/svg">
  <defs
     id="defs5" />
  <sodipodi:namedview
     id="namedview5"
     pagecolor="#ffffff"
     bordercolor="#000000"
     borderopacity="0.25"
     inkscape:showpageshadow="2"
     inkscape:pageopacity="0.0"
     inkscape:pagecheckerboard="0"
     inkscape:deskcolor="#d1d1d1"
     inkscape:zoom="1"
     inkscape:cx="401"
     inkscape:cy="316.5"
     inkscape:window-width="1872"
     inkscape:window-height="1032"
     inkscape:window-x="48"
     inkscape:window-y="-36"
     inkscape:window-maximized="1"
     inkscape:current-layer="svg5" />
  <path
     d="M9.5 11L10 16"
     stroke="#1C274C"
     stroke-width="1.5"
     stroke-linecap="round"
     id="path2"
     style="stroke:#000000;stroke-opacity:0.46854141;stroke-width:2.1;stroke-dasharray:none" />
  <path
     d="M14.5 11L14 16"
     stroke="#1C274C"
     stroke-width="1.5"
     stroke-linecap="round"
     id="path3"
     style="stroke:#000000;stroke-opacity:0.46854141;stroke-width:2.1;stroke-dasharray:none" />
  <path
     id="path4"
     style="stroke:#000000;stroke-width:2.1;stroke-dasharray:none;stroke-opacity:0.46854141;stroke-linecap:round"
     d="m 6.5,5.52 c 0.05588,0 0.08382,0 0.10915,-6.4e-4 C 7.43259,5.49849 8.15902,4.97491 8.43922,4.20032 8.44784,4.17649 8.45667,4.14999 8.47434,4.09697 L 8.57143,3.80571 C 8.65431,3.55708 8.69575,3.43276 8.75071,3.3272 8.97001,2.90607 9.37574,2.61364 9.84461,2.53877 9.96213,2.52 10.0932,2.52 10.3553,2.52 h 3.2894 c 0.2621,0 0.3932,0 0.5107,0.01877 0.4689,0.07487 0.8746,0.3673 1.0939,0.78843 0.055,0.10556 0.0964,0.22988 0.1793,0.47851 l 0.0971,0.29126 c 0.0176,0.05295 0.0265,0.07954 0.0351,0.10335 0.2802,0.77459 1.0066,1.29817 1.8301,1.31904 C 17.4162,5.52 17.4441,5.52 17.5,5.52 m 3.0001,0 H 3.5" />
  <path
     d="M18.3735 15.3991C18.1965 18.054 18.108 19.3815 17.243 20.1907C16.378 21 15.0476 21 12.3868 21H11.6134C8.9526 21 7.6222 21 6.75719 20.1907C5.89218 19.3815 5.80368 18.054 5.62669 15.3991L5.16675 8.5M18.8334 8.5L18.6334 11.5"
     stroke="#1C274C"
     stroke-width="1.5"
     stroke-linecap="round"
     id="path5"
     style="stroke:#000000;stroke-opacity:0.46854141;stroke-width:2.1;stroke-dasharray:none" />
</svg>
